<?xml version="1.0" encoding="utf-8"?>
<!-- Generator: Adobe Illustrator 22.1.0, SVG Export Plug-In . SVG Version: 6.00 Build 0)  -->
<svg version="1.1" id="Layer_1" xmlns="http://www.w3.org/2000/svg" xmlns:xlink="http://www.w3.org/1999/xlink" x="0px" y="0px"
	 viewBox="0 0 342 338" style="enable-background:new 0 0 342 338;" xml:space="preserve">
<style type="text/css">
	.st0{fill:#A61F67;}
</style>
<g>
	<g>
		<path class="st0" d="M126.9,118.1c-1.1,0.7-1.9,1.8-2.4,3.2L84.9,220h5c1.3,0,2.5-0.4,3.7-1.1c1.2-0.8,2.1-1.9,2.7-3.4l39.4-98.5
			h-4.9C129.3,117,128,117.3,126.9,118.1 M297.9,19H44.1C31.4,19,21,29.4,21,42.1v253.7c0,12.8,10.4,23.1,23.2,23.1h253.7
			c12.8,0,23.2-10.4,23.2-23.1V42.1C321,29.4,310.6,19,297.9,19 M309.5,289.6c0,9.9-8,17.9-17.9,17.9H50.4c-9.9,0-17.9-8-17.9-17.9
			V48.4c0-9.9,8-17.9,17.9-17.9h241.1c9.9,0,17.9,8,17.9,17.9V289.6z M213.5,167.2c3.1-1.1,5.8-2.5,8.1-4c2.2-1.5,4.1-3.3,5.5-5.2
			c1.4-1.9,2.5-3.9,3.1-6.1c0.7-2.2,1-4.4,1-6.8c0-4.3-0.7-8.2-2.2-11.6c-1.5-3.5-3.8-6.4-7-8.9c-3.2-2.4-7.3-4.3-12.4-5.6
			c-5-1.3-11.2-2-18.3-2H153V221h41.6c6.2,0,11.8-0.8,16.6-2.4c4.9-1.6,8.9-3.8,12.3-6.6c3.3-2.8,5.8-6.2,7.5-10
			c1.7-3.8,2.6-7.9,2.6-12.4c0-5.9-1.6-10.7-4.9-14.4C225.4,171.5,220.3,168.8,213.5,167.2 M177.2,135h14.2c2.7,0,5.1,0.2,7,0.6
			c2,0.4,3.6,1.1,4.9,2.1c1.3,1,2.2,2.3,2.9,4c0.6,1.6,0.9,3.7,0.9,6.2c0,2.5-0.4,4.6-1.2,6.3c-0.8,1.7-1.9,3-3.4,3.9
			c-1.5,1-3.3,1.6-5.5,2s-4.6,0.6-7.2,0.6h-12.6V135z M209.1,194.1c-0.4,1.6-1.2,3.1-2.4,4.4c-1.2,1.3-2.7,2.3-4.8,3.1
			c-2,0.8-4.6,1.2-7.8,1.2h-17v-25.9H194c3.1,0,5.6,0.3,7.6,0.9c2,0.6,3.6,1.4,4.8,2.4c1.2,1,2.1,2.3,2.6,3.9
			c0.5,1.5,0.8,3.2,0.8,5.1C209.8,190.8,209.5,192.5,209.1,194.1"/>
	</g>
</g>
</svg>
